<?xml version="1.0" encoding="UTF-8" standalone="no"?>
<!-- Created with Inkscape (http://www.inkscape.org/) -->

<svg
   xmlns:dc="http://purl.org/dc/elements/1.1/"
   xmlns:cc="http://creativecommons.org/ns#"
   xmlns:rdf="http://www.w3.org/1999/02/22-rdf-syntax-ns#"
   xmlns:svg="http://www.w3.org/2000/svg"
   xmlns="http://www.w3.org/2000/svg"
   xmlns:sodipodi="http://sodipodi.sourceforge.net/DTD/sodipodi-0.dtd"
   xmlns:inkscape="http://www.inkscape.org/namespaces/inkscape"
   width="3000"
   height="500"
   viewBox="0 0 2999.9999 499.99998"
   id="svg2"
   version="1.1"
   inkscape:version="0.91 r13725"
   sodipodi:docname="monster-defense-blue-blink.svg"
   inkscape:export-filename="/home/timon/development/animationTesting/monster-blink.png"
   inkscape:export-xdpi="36"
   inkscape:export-ydpi="36">
  <defs
     id="defs4" />
  <sodipodi:namedview
     id="base"
     pagecolor="#ffffff"
     bordercolor="#666666"
     borderopacity="1.0"
     inkscape:pageopacity="0.0"
     inkscape:pageshadow="2"
     inkscape:zoom="0.49497475"
     inkscape:cx="998.77699"
     inkscape:cy="297.84296"
     inkscape:document-units="px"
     inkscape:current-layer="layer1"
     showgrid="false"
     units="px"
     inkscape:window-width="2880"
     inkscape:window-height="1749"
     inkscape:window-x="0"
     inkscape:window-y="51"
     inkscape:window-maximized="1"
     showguides="false" />
  <metadata
     id="metadata7">
    <rdf:RDF>
      <cc:Work
         rdf:about="">
        <dc:format>image/svg+xml</dc:format>
        <dc:type
           rdf:resource="http://purl.org/dc/dcmitype/StillImage" />
        <dc:title />
      </cc:Work>
    </rdf:RDF>
  </metadata>
  <g
     inkscape:label="Layer 1"
     inkscape:groupmode="layer"
     id="layer1"
     transform="translate(0,-552.3626)">
    <path
       style="fill:#000000;fill-opacity:1;fill-rule:evenodd;stroke:#0083c7;stroke-width:11.91170597;stroke-linecap:round;stroke-linejoin:round;stroke-miterlimit:4;stroke-dasharray:none;stroke-opacity:1"
       d="m 130.62121,613.51208 -75.45973,6.05043 52.59318,14.66505 -71.597572,17.96303 46.68939,9.22606 -53.262945,29.91709 35.296381,4.17717 -54.592404,44.62508 37.442504,-2.76251 -41.7749569,52.3551 36.0583239,-4.88209 -35.0994704,65.09017 40.8161034,-9.41726 -30.41712,66.73838 45.525365,-23.14953 -22.601285,62.82298 38.934525,-30.45502 -9.513552,83.37429 36.871733,-50.57469 c 0,0 4.48713,58.08639 4.60522,72.88529 0.0355,4.4603 38.01004,-43.45534 38.01004,-43.45534 l 19.45102,66.37924 26.94985,-45.7468 30.73157,47.069 28.83495,-41.1894 38.33791,40.4963 23.34124,-51.46162 c 0,0 49.97476,43.17872 49.97476,41.45222 0,-1.7261 -5.43804,-73.91336 -5.43804,-73.91336 l 59.20799,47.90476 -18.78322,-83.29368 50.63303,32.368 -26.94984,-79.40945 48.24226,33.78357 -31.09236,-78.66716 48.80332,35.35689 -45.49629,-80.89048 48.15206,16.24333 -52.27575,-71.26622 44.27696,0.53744 -57.7519,-47.57887 33.12777,-6.30253 -62.11924,-34.26533 39.43772,-10.73573 -72.0699,-22.70409 40.75487,-11.91822 -68.55567,-9.45172 36.54783,-16.43891 -73.70595,5.21803 20.28635,-19.69843 c 0,0 -52.01044,14.70238 -52.76112,13.60752 -2.38386,-3.4767 -2.85635,-15.87193 -2.85635,-15.87193 l -34.54197,16.63111 -26.7114,-15.86678 0.51656,21.63606 c 0.0171,0.7155 -44.44167,-17.381 -44.44167,-17.381 l 21.27693,22.98546 -60.43103,-14.13927 32.25622,25.36016 -69.637579,-3.44535"
       id="path4258"
       inkscape:connector-curvature="0"
       sodipodi:nodetypes="cccccccccccccccccccscccccccsccccccccccccccccccccccscccsccccc"
       inkscape:export-filename="/home/timon/development/animationTesting/monster-template.png"
       inkscape:export-xdpi="89.999916"
       inkscape:export-ydpi="89.999916" />
    <rect
       style="opacity:0;fill:none;fill-opacity:1;stroke:#000000;stroke-width:1.07211351;stroke-linecap:round;stroke-linejoin:miter;stroke-miterlimit:4;stroke-dasharray:none;stroke-opacity:0.32096073"
       id="rect4262"
       width="498.92789"
       height="498.92789"
       x="0.53605676"
       y="552.89862"
       inkscape:export-filename="/home/timon/development/animationTesting/monster-template.png"
       inkscape:export-xdpi="89.999916"
       inkscape:export-ydpi="89.999916" />
    <path
       style="opacity:0;fill:#000000;fill-opacity:1;fill-rule:evenodd;stroke:#000000;stroke-width:11.91170597;stroke-linecap:round;stroke-linejoin:round;stroke-miterlimit:4;stroke-dasharray:none;stroke-opacity:0.75327507"
       d="m 630.62121,613.5121 -75.45973,6.05043 52.59318,14.66505 -71.59757,17.96303 46.68939,9.22606 -53.26294,29.91709 35.29638,4.17717 -54.59241,44.62508 37.44251,-2.76251 -41.77496,52.3551 36.05832,-4.88209 -35.09947,65.09017 40.81611,-9.41726 -30.41712,66.73838 45.52536,-23.14953 -22.60128,62.82298 38.93452,-30.45502 -9.51355,83.37429 36.87173,-50.57469 c 0,0 4.48713,58.08637 4.60522,72.88527 0.0355,4.4603 38.01004,-43.45532 38.01004,-43.45532 l 19.45102,66.37922 26.94985,-45.74678 30.73157,47.06898 28.83495,-41.1894 38.33791,40.4963 23.34124,-51.4616 c 0,0 49.97476,43.1787 49.97476,41.4522 0,-1.7261 -5.43804,-73.91334 -5.43804,-73.91334 l 59.20799,47.90474 -18.78322,-83.29366 50.63303,32.368 -26.94984,-79.40945 48.24226,33.78357 -31.09236,-78.66716 48.80332,35.35689 -45.49629,-80.89048 48.15206,16.24333 -52.27575,-71.26622 44.27696,0.53744 -57.7519,-47.57887 33.12777,-6.30253 -62.11924,-34.26533 39.43772,-10.73573 -72.0699,-22.70409 40.75487,-11.91822 -68.55567,-9.45172 36.54783,-16.43891 -73.70595,5.21803 20.28635,-19.69843 c 0,0 -52.01044,14.70238 -52.76112,13.60752 -2.38386,-3.4767 -2.85635,-15.87193 -2.85635,-15.87193 l -34.54197,16.63111 -26.7114,-15.86678 0.51656,21.63606 c 0.0171,0.7155 -44.44167,-17.381 -44.44167,-17.381 l 21.27693,22.98546 -60.43103,-14.13927 32.25622,25.36016 -69.63758,-3.44535"
       id="path4258-91"
       inkscape:connector-curvature="0"
       sodipodi:nodetypes="cccccccccccccccccccscccccccsccccccccccccccccccccccscccsccccc"
       inkscape:export-filename="/home/timon/development/animationTesting/monster-template.png"
       inkscape:export-xdpi="89.999916"
       inkscape:export-ydpi="89.999916" />
    <path
       style="fill:#000000;fill-opacity:1;fill-rule:evenodd;stroke:#0083c7;stroke-width:11.91170597;stroke-linecap:round;stroke-linejoin:round;stroke-miterlimit:4;stroke-dasharray:none;stroke-opacity:1"
       d="m 621.51407,620.4764 -61.30183,-5.45954 39.86385,26.17502 -61.14108,5.69544 37.84004,25.06507 -50.72705,15.08823 35.43906,21.32746 -50.44194,28.73748 37.39919,10.62509 -40.97402,37.70481 37.40023,7.98249 -36.18884,50.45782 41.54834,3.96509 -31.17473,61.68758 47.3544,-18.9916 -27.94048,53.61651 45.70229,-21.24851 -15.5237,73.66273 43.59617,-42.11313 c 0,0 -4.76269,52.65526 -4.6446,67.45416 0.0355,4.4603 47.43843,-39.09569 47.43843,-39.09569 l 10.27516,62.27209 39.69714,-45.38959 17.22667,45.19659 42.33985,-41.1028 26.34824,39.9046 32.47376,-51.76276 c 0,0 40.08462,46.51036 40.08462,44.78386 0,-1.7261 6.9521,-82.6021 6.9521,-82.6021 l 45.55516,59.6239 -9.23753,-97.86994 43.61272,44.67148 -18.14382,-86.53441 36.15325,41.41358 -20.96763,-88.97571 41.45651,43.64514 -40.47091,-92.03588 43.88429,29.91411 -56.40084,-90.47271 47.3919,20.50154 -58.72398,-56.29297 31.61254,-2.26192 -61.13972,-38.30594 42.2082,-10e-4 -74.1261,-32.36707 43.82122,-5.03316 -77.69345,-12.58678 43.15498,-13.95686 -73.70595,3.45026 26.09998,-18.03526 c 0,0 -63.53836,16.43207 -64.28904,15.33721 -2.38386,-3.4767 6.39873,-18.1067 6.39873,-18.1067 l -40.40419,16.72302 -18.57634,-17.22138 -8.8685,22.99066 c -0.25758,0.66775 -34.55153,-18.98814 -34.55153,-18.98814 l 7.81536,25.8426 -44.44408,-19.52179 17.3407,32.70697 -56.48983,-11.29724"
       id="path4258-91-6"
       inkscape:connector-curvature="0"
       sodipodi:nodetypes="cccccccccccccccccccscccccccsccccccccccccccccccccccscccsccccc"
       inkscape:export-filename="/home/timon/development/animationTesting/monster-template.png"
       inkscape:export-xdpi="89.999916"
       inkscape:export-ydpi="89.999916" />
    <rect
       style="opacity:0;fill:none;fill-opacity:1;stroke:#000000;stroke-width:1.07211351;stroke-linecap:round;stroke-linejoin:miter;stroke-miterlimit:4;stroke-dasharray:none;stroke-opacity:0.32096073"
       id="rect4262-7-9"
       width="498.92789"
       height="498.92789"
       x="500.53607"
       y="552.89862"
       inkscape:export-filename="/home/timon/development/animationTesting/monster-template.png"
       inkscape:export-xdpi="89.999916"
       inkscape:export-ydpi="89.999916" />
    <rect
       style="opacity:0;fill:none;fill-opacity:1;stroke:#000000;stroke-width:1.07211351;stroke-linecap:round;stroke-linejoin:miter;stroke-miterlimit:4;stroke-dasharray:none;stroke-opacity:0.32096073"
       id="rect4262-7-9-9"
       width="498.92789"
       height="498.92789"
       x="1000.5361"
       y="552.89862"
       inkscape:export-filename="/home/timon/development/animationTesting/monster-template.png"
       inkscape:export-xdpi="89.999916"
       inkscape:export-ydpi="89.999916" />
    <path
       style="fill:#000000;fill-opacity:1;fill-rule:evenodd;stroke:#0083c7;stroke-width:11.91170597;stroke-linecap:round;stroke-linejoin:round;stroke-miterlimit:4;stroke-dasharray:none;stroke-opacity:1"
       d="m 1118.4836,622.24423 -60.5442,-15.30854 39.3588,37.60238 -58.4893,0.45527 35.4408,32.26241 -44.6661,8.64851 31.0196,27.51464 -47.9165,20.15119 35.0001,20.22154 -39.7114,30.00239 37.6528,14.80102 -38.2091,46.41722 45.0838,8.00569 -35.4678,56.63682 51.1425,-14.69845 -34.7591,49.5759 55.4251,-17.83925 -25.4991,69.24332 55.4655,-37.06237 c 0,0 -16.1269,48.23578 -16.0088,63.03468 0.035,4.4603 59.0552,-36.82279 59.0552,-36.82279 l 2.4465,58.73649 47.9046,-44.63191 11.1657,45.19651 50.9262,-43.2494 13.8476,43.9453 42.1965,-58.455 c 0,0 29.0992,50.9297 29.0992,49.2032 0,-1.7261 16.9273,-86.51636 16.9273,-86.51636 l 38.4841,62.14926 -4.1868,-101.658 37.4257,49.46971 -13.472,-94.36309 32.3652,49.62107 -20.9677,-94.91036 39.9413,52.23144 -38.4506,-102.13741 41.359,38.62668 -58.6737,-99.94289 47.2656,26.30991 -58.3452,-57.68193 31.4863,-2.26192 -61.3923,-40.57878 47.6379,5.17571 -81.5761,-35.14499 50.0084,1.15403 -79.7137,-17.25874 46.0592,-8.9061 -77.7466,1.30369 27.489,-17.53019 c 0,0 -68.7154,18.57865 -69.4661,17.48379 -2.3839,-3.4767 15.3638,-19.62193 15.3638,-19.62193 l -46.2126,15.83914 -11.6315,-17.09511 -15.9395,23.622 c -0.4003,0.5933 -27.4806,-20.62963 -27.4806,-20.62963 l -5.3704,31.12052 -32.7735,-22.27433 10.3959,33.96966 -51.9441,-19.50473"
       id="path4258-91-6-6-6"
       inkscape:connector-curvature="0"
       sodipodi:nodetypes="cccccccccccccccccccscccccccsccccccccccccccccccccccscccsccccc"
       inkscape:export-filename="/home/timon/development/animationTesting/monster-template.png"
       inkscape:export-xdpi="89.999916"
       inkscape:export-ydpi="89.999916" />
    <rect
       style="opacity:0;fill:none;fill-opacity:1;stroke:#000000;stroke-width:1.07211351;stroke-linecap:round;stroke-linejoin:miter;stroke-miterlimit:4;stroke-dasharray:none;stroke-opacity:0.32096073"
       id="rect4262-7-9-9-4"
       width="498.92789"
       height="498.92789"
       x="1000.5361"
       y="552.89862"
       inkscape:export-filename="/home/timon/development/animationTesting/monster-template.png"
       inkscape:export-xdpi="89.999916"
       inkscape:export-ydpi="89.999916" />
    <rect
       style="opacity:0;fill:none;fill-opacity:1;stroke:#000000;stroke-width:1.07211351;stroke-linecap:round;stroke-linejoin:miter;stroke-miterlimit:4;stroke-dasharray:none;stroke-opacity:0.32096073"
       id="rect4262-7-9-9-8-0"
       width="498.92789"
       height="498.92789"
       x="1500.5361"
       y="552.89862"
       inkscape:export-filename="/home/timon/development/animationTesting/monster-template.png"
       inkscape:export-xdpi="89.999916"
       inkscape:export-ydpi="89.999916" />
    <path
       style="fill:#000000;fill-opacity:1;fill-rule:evenodd;stroke:#0083c7;stroke-width:11.91170597;stroke-linecap:round;stroke-linejoin:round;stroke-miterlimit:4;stroke-dasharray:none;stroke-opacity:1"
       d="m 1612.5908,627.42288 -53.3221,-13.21734 30.5296,38.01118 -50.0696,-2.70457 28.6282,32.74364 -40.2018,3.18522 26.0196,33.87079 -44.4227,15.46718 32.9349,27.22698 -34.5888,20.22275 34.1373,22.97351 -31.7499,34.73457 39.6961,23.79549 -31.0828,38.34702 51.7575,1.62706 -34.0121,38.58215 53.7852,-6.30979 -26.3284,57.62195 59.5091,-27.58385 c 0,0 -18.1502,40.45248 -18.0321,55.25138 0.035,4.4603 62.8642,-32.78949 62.8642,-32.78949 l -7.546,53.92769 61.1115,-40.8945 -2.5372,41.8596 62.3077,-43.66261 4.508,43.32661 53.5004,-59.62195 c 0,0 14.8156,55.26765 14.8156,53.54115 0,-1.7261 29.2466,-93.35431 29.2466,-93.35431 l 28.0947,66.63141 4.5954,-110.06872 29.3974,64.67892 -9.908,-111.00087 31.5575,67.33925 -18.91,-116.55711 36.2638,70.92542 -36.5588,-112.79568 38.6789,43.86281 -56.3507,-99.46473 45.7794,35.49256 -66.6804,-73.65029 41.5206,9.05461 -67.3195,-40.46674 55.0676,-0.0409 -86.3272,-35.64264 51.9764,3.34175 -86.146,-19.44646 54.1382,-6.62274 -89.0399,2.77033 40.2632,-18.6793 c 0,0 -75.7753,17.04919 -76.526,15.95433 -2.3839,-3.4767 24.4799,-19.82588 24.4799,-19.82588 l -54.4359,19.43595 -5.746,-19.02876 -25.3964,24.66279 c -0.5135,0.49864 -18.8859,-22.55059 -18.8859,-22.55059 l -13.608,35.18434 -28.2247,-27.40958 7.8114,39.81919 -44.2998,-23.79724"
       id="path4258-91-6-6-6-6-7"
       inkscape:connector-curvature="0"
       sodipodi:nodetypes="cccccccccccccccccccscccccccsccccccccccccccccccccccscccsccccc"
       inkscape:export-filename="/home/timon/development/animationTesting/monster-template.png"
       inkscape:export-xdpi="89.999916"
       inkscape:export-ydpi="89.999916" />
    <rect
       style="opacity:0;fill:none;fill-opacity:1;stroke:#000000;stroke-width:1.07211351;stroke-linecap:round;stroke-linejoin:miter;stroke-miterlimit:4;stroke-dasharray:none;stroke-opacity:0.32096073"
       id="rect4262-7-9-9-4-1-7"
       width="498.92789"
       height="498.92789"
       x="1500.5361"
       y="552.89862"
       inkscape:export-filename="/home/timon/development/animationTesting/monster-template.png"
       inkscape:export-xdpi="89.999916"
       inkscape:export-ydpi="89.999916" />
    <ellipse
       style="fill:#ffffff;fill-opacity:1;stroke:#000000;stroke-width:1.67319083;stroke-miterlimit:4;stroke-dasharray:none"
       id="path4180-94-1"
       cx="304.89621"
       cy="731.80701"
       rx="51.962467"
       ry="65.858437"
       inkscape:export-filename="/home/timon/development/animationTesting/monster-template.png"
       inkscape:export-xdpi="89.999916"
       inkscape:export-ydpi="89.999916" />
    <ellipse
       style="fill:#ffffff;fill-opacity:1;stroke:#000000;stroke-width:1.60275614;stroke-miterlimit:4;stroke-dasharray:none"
       id="path4180-2-4-1"
       cx="191.36383"
       cy="722.15503"
       rx="60.562447"
       ry="84.231323"
       inkscape:export-filename="/home/timon/development/animationTesting/monster-template.png"
       inkscape:export-xdpi="89.999916"
       inkscape:export-ydpi="89.999916" />
    <ellipse
       style="fill:#000000;fill-opacity:1;stroke:none"
       id="path4199-60-4"
       cx="307.25735"
       cy="746.59094"
       rx="9.5638466"
       ry="12.424385"
       inkscape:export-filename="/home/timon/development/animationTesting/monster-template.png"
       inkscape:export-xdpi="89.999916"
       inkscape:export-ydpi="89.999916" />
    <ellipse
       style="fill:#000000;fill-opacity:1;stroke:none"
       id="path4199-6-10-9"
       cx="190.71584"
       cy="741.88281"
       rx="10.945463"
       ry="13.657417"
       inkscape:export-filename="/home/timon/development/animationTesting/monster-template.png"
       inkscape:export-xdpi="89.999916"
       inkscape:export-ydpi="89.999916" />
    <path
       style="fill:#ffffff;fill-opacity:1;fill-rule:evenodd;stroke:#000000;stroke-width:1.67684472;stroke-linecap:round;stroke-linejoin:round;stroke-miterlimit:4;stroke-dasharray:none;stroke-opacity:1"
       d="m 192.40301,877.46817 -8.14428,52.0957 43.22516,7.6317 -2.66165,-53.1263 z"
       id="path4232-06-1"
       inkscape:connector-curvature="0"
       sodipodi:nodetypes="ccccc"
       inkscape:export-filename="/home/timon/development/animationTesting/monster-template.png"
       inkscape:export-xdpi="89.999916"
       inkscape:export-ydpi="89.999916" />
    <path
       style="fill:#ffffff;fill-opacity:1;fill-rule:evenodd;stroke:#000000;stroke-width:1.67684472;stroke-linecap:butt;stroke-linejoin:round;stroke-miterlimit:4;stroke-dasharray:none;stroke-opacity:1"
       d="m 299.6112,879.80837 12.46343,65.0651 -50.42375,6.6507 3.48434,-66.6405 z"
       id="path4232-1-9-5"
       inkscape:connector-curvature="0"
       sodipodi:nodetypes="ccccc"
       inkscape:export-filename="/home/timon/development/animationTesting/monster-template.png"
       inkscape:export-xdpi="89.999916"
       inkscape:export-ydpi="89.999916" />
    <path
       style="fill:none;fill-rule:evenodd;stroke:#ffffff;stroke-width:3.35368943;stroke-linecap:round;stroke-linejoin:miter;stroke-miterlimit:4;stroke-dasharray:none;stroke-opacity:1"
       d="m 148.01995,856.88577 c 38.76089,30.8021 141.64095,45.1603 205.50038,-2.8104"
       id="path4228-73-0"
       inkscape:connector-curvature="0"
       sodipodi:nodetypes="cc"
       inkscape:export-filename="/home/timon/development/animationTesting/monster-template.png"
       inkscape:export-xdpi="89.999916"
       inkscape:export-ydpi="89.999916" />
    <ellipse
       style="fill:#ffffff;fill-opacity:1;stroke:#000000;stroke-width:1.67319083;stroke-miterlimit:4;stroke-dasharray:none"
       id="path4180-94-1-0"
       cx="804.89618"
       cy="735.80701"
       rx="51.962467"
       ry="65.858437"
       inkscape:export-filename="/home/timon/development/animationTesting/monster-template.png"
       inkscape:export-xdpi="89.999916"
       inkscape:export-ydpi="89.999916" />
    <ellipse
       style="fill:#ffffff;fill-opacity:1;stroke:#000000;stroke-width:1.60275614;stroke-miterlimit:4;stroke-dasharray:none"
       id="path4180-2-4-1-1"
       cx="691.36383"
       cy="726.15503"
       rx="60.562447"
       ry="84.231323"
       inkscape:export-filename="/home/timon/development/animationTesting/monster-template.png"
       inkscape:export-xdpi="89.999916"
       inkscape:export-ydpi="89.999916" />
    <ellipse
       style="fill:#000000;fill-opacity:1;stroke:none"
       id="path4199-60-4-2"
       cx="807.25732"
       cy="750.59094"
       rx="9.5638466"
       ry="12.424385"
       inkscape:export-filename="/home/timon/development/animationTesting/monster-template.png"
       inkscape:export-xdpi="89.999916"
       inkscape:export-ydpi="89.999916" />
    <ellipse
       style="fill:#000000;fill-opacity:1;stroke:none"
       id="path4199-6-10-9-9"
       cx="690.71582"
       cy="745.88281"
       rx="10.945463"
       ry="13.657417"
       inkscape:export-filename="/home/timon/development/animationTesting/monster-template.png"
       inkscape:export-xdpi="89.999916"
       inkscape:export-ydpi="89.999916" />
    <path
       style="fill:#ffffff;fill-opacity:1;fill-rule:evenodd;stroke:#000000;stroke-width:1.67684472;stroke-linecap:round;stroke-linejoin:round;stroke-miterlimit:4;stroke-dasharray:none;stroke-opacity:1"
       d="m 692.40301,871.46817 -8.14428,52.0957 43.22516,7.6317 -2.66165,-53.1263 z"
       id="path4232-06-1-2"
       inkscape:connector-curvature="0"
       sodipodi:nodetypes="ccccc"
       inkscape:export-filename="/home/timon/development/animationTesting/monster-template.png"
       inkscape:export-xdpi="89.999916"
       inkscape:export-ydpi="89.999916" />
    <path
       style="fill:#ffffff;fill-opacity:1;fill-rule:evenodd;stroke:#000000;stroke-width:1.67684472;stroke-linecap:butt;stroke-linejoin:round;stroke-miterlimit:4;stroke-dasharray:none;stroke-opacity:1"
       d="m 799.6112,873.80837 12.46343,65.0651 -50.42375,6.6507 3.48434,-66.6405 z"
       id="path4232-1-9-5-0"
       inkscape:connector-curvature="0"
       sodipodi:nodetypes="ccccc"
       inkscape:export-filename="/home/timon/development/animationTesting/monster-template.png"
       inkscape:export-xdpi="89.999916"
       inkscape:export-ydpi="89.999916" />
    <path
       style="fill:none;fill-rule:evenodd;stroke:#ffffff;stroke-width:3.35368943;stroke-linecap:round;stroke-linejoin:miter;stroke-miterlimit:4;stroke-dasharray:none;stroke-opacity:1"
       d="m 648.01995,850.88577 c 38.76089,30.8021 141.64095,45.1603 205.50038,-2.8104"
       id="path4228-73-0-3"
       inkscape:connector-curvature="0"
       sodipodi:nodetypes="cc"
       inkscape:export-filename="/home/timon/development/animationTesting/monster-template.png"
       inkscape:export-xdpi="89.999916"
       inkscape:export-ydpi="89.999916" />
    <ellipse
       style="fill:#ffffff;fill-opacity:1;stroke:#000000;stroke-width:1.67319083;stroke-miterlimit:4;stroke-dasharray:none"
       id="path4180-94-1-0-0"
       cx="1304.8962"
       cy="751.80701"
       rx="51.962467"
       ry="65.858437"
       inkscape:export-filename="/home/timon/development/animationTesting/monster-template.png"
       inkscape:export-xdpi="89.999916"
       inkscape:export-ydpi="89.999916" />
    <ellipse
       style="fill:#ffffff;fill-opacity:1;stroke:#000000;stroke-width:1.60275614;stroke-miterlimit:4;stroke-dasharray:none"
       id="path4180-2-4-1-1-8"
       cx="1191.3638"
       cy="742.15503"
       rx="60.562447"
       ry="84.231323"
       inkscape:export-filename="/home/timon/development/animationTesting/monster-template.png"
       inkscape:export-xdpi="89.999916"
       inkscape:export-ydpi="89.999916" />
    <ellipse
       style="fill:#000000;fill-opacity:1;stroke:none"
       id="path4199-60-4-2-5"
       cx="1307.2573"
       cy="766.59094"
       rx="9.5638466"
       ry="12.424385"
       inkscape:export-filename="/home/timon/development/animationTesting/monster-template.png"
       inkscape:export-xdpi="89.999916"
       inkscape:export-ydpi="89.999916" />
    <ellipse
       style="fill:#000000;fill-opacity:1;stroke:none"
       id="path4199-6-10-9-9-1"
       cx="1190.7158"
       cy="761.88281"
       rx="10.945463"
       ry="13.657417"
       inkscape:export-filename="/home/timon/development/animationTesting/monster-template.png"
       inkscape:export-xdpi="89.999916"
       inkscape:export-ydpi="89.999916" />
    <path
       style="fill:#ffffff;fill-opacity:1;fill-rule:evenodd;stroke:#000000;stroke-width:1.67684472;stroke-linecap:round;stroke-linejoin:round;stroke-miterlimit:4;stroke-dasharray:none;stroke-opacity:1"
       d="m 1192.403,865.46817 -8.1442,52.0957 43.2251,7.6317 -2.6616,-53.1263 z"
       id="path4232-06-1-2-6"
       inkscape:connector-curvature="0"
       sodipodi:nodetypes="ccccc"
       inkscape:export-filename="/home/timon/development/animationTesting/monster-template.png"
       inkscape:export-xdpi="89.999916"
       inkscape:export-ydpi="89.999916" />
    <path
       style="fill:#ffffff;fill-opacity:1;fill-rule:evenodd;stroke:#000000;stroke-width:1.67684472;stroke-linecap:butt;stroke-linejoin:round;stroke-miterlimit:4;stroke-dasharray:none;stroke-opacity:1"
       d="m 1299.6112,867.80837 12.4634,65.0651 -50.4237,6.6507 3.4843,-66.6405 z"
       id="path4232-1-9-5-0-4"
       inkscape:connector-curvature="0"
       sodipodi:nodetypes="ccccc"
       inkscape:export-filename="/home/timon/development/animationTesting/monster-template.png"
       inkscape:export-xdpi="89.999916"
       inkscape:export-ydpi="89.999916" />
    <path
       style="fill:none;fill-rule:evenodd;stroke:#ffffff;stroke-width:3.35368943;stroke-linecap:round;stroke-linejoin:miter;stroke-miterlimit:4;stroke-dasharray:none;stroke-opacity:1"
       d="m 1148.02,844.88577 c 38.7609,30.8021 141.6409,45.1603 205.5003,-2.8104"
       id="path4228-73-0-3-0"
       inkscape:connector-curvature="0"
       sodipodi:nodetypes="cc"
       inkscape:export-filename="/home/timon/development/animationTesting/monster-template.png"
       inkscape:export-xdpi="89.999916"
       inkscape:export-ydpi="89.999916" />
    <path
       style="fill:#ffffff;fill-opacity:1;fill-rule:evenodd;stroke:#000000;stroke-width:1.67684472;stroke-linecap:round;stroke-linejoin:round;stroke-miterlimit:4;stroke-dasharray:none;stroke-opacity:1"
       d="m 1692.4031,843.46817 -8.1443,52.0957 43.2252,7.6317 -2.6617,-53.1263 z"
       id="path4232-06-1-2-69"
       inkscape:connector-curvature="0"
       sodipodi:nodetypes="ccccc"
       inkscape:export-filename="/home/timon/development/animationTesting/monster-template.png"
       inkscape:export-xdpi="89.999916"
       inkscape:export-ydpi="89.999916" />
    <path
       style="fill:#ffffff;fill-opacity:1;fill-rule:evenodd;stroke:#000000;stroke-width:1.67684472;stroke-linecap:butt;stroke-linejoin:round;stroke-miterlimit:4;stroke-dasharray:none;stroke-opacity:1"
       d="m 1799.6113,845.80837 12.4634,65.0651 -50.4238,6.6507 3.4844,-66.6405 z"
       id="path4232-1-9-5-0-1"
       inkscape:connector-curvature="0"
       sodipodi:nodetypes="ccccc"
       inkscape:export-filename="/home/timon/development/animationTesting/monster-template.png"
       inkscape:export-xdpi="89.999916"
       inkscape:export-ydpi="89.999916" />
    <path
       style="fill:none;fill-rule:evenodd;stroke:#ffffff;stroke-width:3.35368943;stroke-linecap:round;stroke-linejoin:miter;stroke-miterlimit:4;stroke-dasharray:none;stroke-opacity:1"
       d="m 1648.02,822.88577 c 38.7609,30.8021 141.641,45.1603 205.5004,-2.8104"
       id="path4228-73-0-3-1"
       inkscape:connector-curvature="0"
       sodipodi:nodetypes="cc"
       inkscape:export-filename="/home/timon/development/animationTesting/monster-template.png"
       inkscape:export-xdpi="89.999916"
       inkscape:export-ydpi="89.999916" />
    <rect
       style="opacity:0;fill:none;fill-opacity:1;stroke:#000000;stroke-width:1.07211351;stroke-linecap:round;stroke-linejoin:miter;stroke-miterlimit:4;stroke-dasharray:none;stroke-opacity:0.32096073"
       id="rect4262-7-9-9-7"
       width="498.92789"
       height="498.92789"
       x="2000.536"
       y="552.89862"
       inkscape:export-filename="/home/timon/development/animationTesting/monster-template.png"
       inkscape:export-xdpi="89.999916"
       inkscape:export-ydpi="89.999916" />
    <path
       style="fill:#000000;fill-opacity:1;fill-rule:evenodd;stroke:#0083c7;stroke-width:11.91170597;stroke-linecap:round;stroke-linejoin:round;stroke-miterlimit:4;stroke-dasharray:none;stroke-opacity:1"
       d="m 2118.4836,622.24427 -60.5442,-15.30854 39.3588,37.60238 -58.4893,0.45527 35.4408,32.26241 -44.6661,8.64851 31.0196,27.51464 -47.9165,20.15119 35.0001,20.22154 -39.7114,30.00239 37.6528,14.80102 -38.2091,46.41722 45.0838,8.00569 -35.4678,56.63682 51.1425,-14.69845 -34.7591,49.5759 55.4251,-17.83925 -25.4991,69.24332 55.4655,-37.06237 c 0,0 -16.1269,48.23574 -16.0088,63.03464 0.035,4.4603 59.0552,-36.82275 59.0552,-36.82275 l 2.4465,58.73645 47.9046,-44.63187 11.1657,45.19647 50.9262,-43.2494 13.8476,43.9453 42.1965,-58.45496 c 0,0 29.0992,50.92966 29.0992,49.20316 0,-1.7261 16.9273,-86.51632 16.9273,-86.51632 l 38.4841,62.14922 -4.1868,-101.65796 37.4257,49.46971 -13.472,-94.36309 32.3652,49.62107 -20.9677,-94.91036 39.9413,52.23144 -38.4506,-102.13741 41.359,38.62668 -58.6737,-99.94289 47.2656,26.30991 -58.3452,-57.68193 31.4863,-2.26192 -61.3923,-40.57878 47.6379,5.17571 -81.5761,-35.14499 50.0084,1.15403 -79.7137,-17.25874 46.0592,-8.9061 -77.7466,1.30369 27.489,-17.53019 c 0,0 -68.7154,18.57865 -69.4661,17.48379 -2.3839,-3.4767 15.3638,-19.62193 15.3638,-19.62193 l -46.2126,15.83914 -11.6315,-17.09511 -15.9395,23.622 c -0.4003,0.5933 -27.4806,-20.62963 -27.4806,-20.62963 l -5.3704,31.12052 -32.7735,-22.27433 10.3959,33.96966 -51.9441,-19.50473"
       id="path4258-91-6-6-6-4"
       inkscape:connector-curvature="0"
       sodipodi:nodetypes="cccccccccccccccccccscccccccsccccccccccccccccccccccscccsccccc"
       inkscape:export-filename="/home/timon/development/animationTesting/monster-template.png"
       inkscape:export-xdpi="89.999916"
       inkscape:export-ydpi="89.999916" />
    <rect
       style="opacity:0;fill:none;fill-opacity:1;stroke:#000000;stroke-width:1.07211351;stroke-linecap:round;stroke-linejoin:miter;stroke-miterlimit:4;stroke-dasharray:none;stroke-opacity:0.32096073"
       id="rect4262-7-9-9-4-2"
       width="498.92789"
       height="498.92789"
       x="2000.536"
       y="552.89862"
       inkscape:export-filename="/home/timon/development/animationTesting/monster-template.png"
       inkscape:export-xdpi="89.999916"
       inkscape:export-ydpi="89.999916" />
    <ellipse
       style="fill:#ffffff;fill-opacity:1;stroke:#000000;stroke-width:1.67319083;stroke-miterlimit:4;stroke-dasharray:none"
       id="path4180-94-1-0-0-1"
       cx="2304.8962"
       cy="757.80701"
       rx="51.962467"
       ry="65.858437"
       inkscape:export-filename="/home/timon/development/animationTesting/monster-template.png"
       inkscape:export-xdpi="89.999916"
       inkscape:export-ydpi="89.999916" />
    <ellipse
       style="fill:#ffffff;fill-opacity:1;stroke:#000000;stroke-width:1.60275614;stroke-miterlimit:4;stroke-dasharray:none"
       id="path4180-2-4-1-1-8-0"
       cx="2191.3638"
       cy="748.15503"
       rx="60.562447"
       ry="84.231323"
       inkscape:export-filename="/home/timon/development/animationTesting/monster-template.png"
       inkscape:export-xdpi="89.999916"
       inkscape:export-ydpi="89.999916" />
    <ellipse
       style="fill:#000000;fill-opacity:1;stroke:none"
       id="path4199-60-4-2-5-2"
       cx="2307.2573"
       cy="772.59094"
       rx="9.5638466"
       ry="12.424385"
       inkscape:export-filename="/home/timon/development/animationTesting/monster-template.png"
       inkscape:export-xdpi="89.999916"
       inkscape:export-ydpi="89.999916" />
    <ellipse
       style="fill:#000000;fill-opacity:1;stroke:none"
       id="path4199-6-10-9-9-1-7"
       cx="2190.7158"
       cy="767.88281"
       rx="10.945463"
       ry="13.657417"
       inkscape:export-filename="/home/timon/development/animationTesting/monster-template.png"
       inkscape:export-xdpi="89.999916"
       inkscape:export-ydpi="89.999916" />
    <path
       style="fill:#ffffff;fill-opacity:1;fill-rule:evenodd;stroke:#000000;stroke-width:1.67684472;stroke-linecap:round;stroke-linejoin:round;stroke-miterlimit:4;stroke-dasharray:none;stroke-opacity:1"
       d="m 2192.403,869.46821 -8.1442,52.0957 43.2251,7.6317 -2.6616,-53.1263 z"
       id="path4232-06-1-2-6-7"
       inkscape:connector-curvature="0"
       sodipodi:nodetypes="ccccc"
       inkscape:export-filename="/home/timon/development/animationTesting/monster-template.png"
       inkscape:export-xdpi="89.999916"
       inkscape:export-ydpi="89.999916" />
    <path
       style="fill:#ffffff;fill-opacity:1;fill-rule:evenodd;stroke:#000000;stroke-width:1.67684472;stroke-linecap:butt;stroke-linejoin:round;stroke-miterlimit:4;stroke-dasharray:none;stroke-opacity:1"
       d="m 2299.6112,871.80841 12.4634,65.0651 -50.4237,6.6507 3.4843,-66.6405 z"
       id="path4232-1-9-5-0-4-7"
       inkscape:connector-curvature="0"
       sodipodi:nodetypes="ccccc"
       inkscape:export-filename="/home/timon/development/animationTesting/monster-template.png"
       inkscape:export-xdpi="89.999916"
       inkscape:export-ydpi="89.999916" />
    <path
       style="fill:none;fill-rule:evenodd;stroke:#ffffff;stroke-width:3.35368943;stroke-linecap:round;stroke-linejoin:miter;stroke-miterlimit:4;stroke-dasharray:none;stroke-opacity:1"
       d="m 2148.02,848.88581 c 38.7609,30.8021 141.6409,45.1603 205.5003,-2.8104"
       id="path4228-73-0-3-0-4"
       inkscape:connector-curvature="0"
       sodipodi:nodetypes="cc"
       inkscape:export-filename="/home/timon/development/animationTesting/monster-template.png"
       inkscape:export-xdpi="89.999916"
       inkscape:export-ydpi="89.999916" />
    <path
       style="opacity:0;fill:#000000;fill-opacity:1;fill-rule:evenodd;stroke:#000000;stroke-width:11.91170597;stroke-linecap:round;stroke-linejoin:round;stroke-miterlimit:4;stroke-dasharray:none;stroke-opacity:0.75327507"
       d="m 2630.6212,613.51212 -75.4597,6.05043 52.5932,14.66505 -71.5976,17.96303 46.6894,9.22606 -53.263,29.91709 35.2964,4.17717 -54.5924,44.62508 37.4425,-2.76251 -41.7749,52.3551 36.0583,-4.88209 -35.0995,65.09017 40.8161,-9.41726 -30.4171,66.73838 45.5254,-23.14953 -22.6013,62.82298 38.9345,-30.45502 -9.5136,83.37429 36.8718,-50.57469 c 0,0 4.4871,58.08635 4.6052,72.88525 0.035,4.4603 38.01,-43.4553 38.01,-43.4553 l 19.4511,66.3792 26.9498,-45.74676 30.7316,47.06896 28.8349,-41.1894 38.3379,40.4963 23.3413,-51.46158 c 0,0 49.9747,43.17868 49.9747,41.45218 0,-1.7261 -5.438,-73.91332 -5.438,-73.91332 l 59.208,47.90472 -18.7832,-83.29364 50.633,32.368 -26.9498,-79.40945 48.2422,33.78357 -31.0923,-78.66716 48.8033,35.35689 -45.4963,-80.89048 48.1521,16.24333 -52.2758,-71.26622 44.277,0.53744 -57.7519,-47.57887 33.1277,-6.30253 -62.1192,-34.26533 39.4377,-10.73573 -72.0699,-22.70409 40.7549,-11.91822 -68.5557,-9.45172 36.5478,-16.43891 -73.7059,5.21803 20.2863,-19.69843 c 0,0 -52.0104,14.70238 -52.7611,13.60752 -2.3838,-3.4767 -2.8563,-15.87193 -2.8563,-15.87193 l -34.542,16.63111 -26.7114,-15.86678 0.5166,21.63606 c 0.017,0.7155 -44.4417,-17.381 -44.4417,-17.381 l 21.2769,22.98546 -60.431,-14.13927 32.2562,25.36016 -69.6376,-3.44535"
       id="path4258-91-5"
       inkscape:connector-curvature="0"
       sodipodi:nodetypes="cccccccccccccccccccscccccccsccccccccccccccccccccccscccsccccc"
       inkscape:export-filename="/home/timon/development/animationTesting/monster-template.png"
       inkscape:export-xdpi="89.999916"
       inkscape:export-ydpi="89.999916" />
    <rect
       style="opacity:0;fill:none;fill-opacity:1;stroke:#000000;stroke-width:1.07211351;stroke-linecap:round;stroke-linejoin:miter;stroke-miterlimit:4;stroke-dasharray:none;stroke-opacity:0.32096073"
       id="rect4262-7-4"
       width="498.92789"
       height="498.92789"
       x="2500.5361"
       y="552.89862"
       inkscape:export-filename="/home/timon/development/animationTesting/monster-template.png"
       inkscape:export-xdpi="89.999916"
       inkscape:export-ydpi="89.999916" />
    <path
       style="fill:#000000;fill-opacity:1;fill-rule:evenodd;stroke:#0083c7;stroke-width:11.91170597;stroke-linecap:round;stroke-linejoin:round;stroke-miterlimit:4;stroke-dasharray:none;stroke-opacity:1"
       d="m 2621.5141,620.47642 -61.3019,-5.45954 39.8639,26.17502 -61.1411,5.69544 37.84,25.06507 -50.727,15.08823 35.4391,21.32746 -50.442,28.73748 37.3992,10.62509 -40.974,37.70481 37.4002,7.98249 -36.1888,50.45782 41.5483,3.96509 -31.1747,61.68758 47.3544,-18.9916 -27.9405,53.61651 45.7023,-21.24851 -15.5237,73.66273 43.5962,-42.11313 c 0,0 -4.7627,52.65524 -4.6446,67.45414 0.035,4.4603 47.4384,-39.09567 47.4384,-39.09567 l 10.2752,62.27207 39.6971,-45.38957 17.2267,45.19657 42.3398,-41.1028 26.3483,39.9046 32.4737,-51.76274 c 0,0 40.0846,46.51034 40.0846,44.78384 0,-1.7261 6.9521,-82.60208 6.9521,-82.60208 l 45.5552,59.62388 -9.2375,-97.86992 43.6127,44.67148 -18.1438,-86.53441 36.1532,41.41358 -20.9676,-88.97571 41.4565,43.64514 -40.4709,-92.03588 43.8843,29.91411 -56.4009,-90.47271 47.3919,20.50154 -58.7239,-56.29297 31.6125,-2.26192 -61.1397,-38.30594 42.2082,-0.001 -74.1261,-32.36707 43.8212,-5.03316 -77.6934,-12.58678 43.1549,-13.95686 -73.7059,3.45026 26.1,-18.03526 c 0,0 -63.5384,16.43207 -64.2891,15.33721 -2.3838,-3.4767 6.3988,-18.1067 6.3988,-18.1067 l -40.4042,16.72302 -18.5764,-17.22138 -8.8685,22.99066 c -0.2576,0.66775 -34.5515,-18.98814 -34.5515,-18.98814 l 7.8154,25.8426 -44.4441,-19.52179 17.3407,32.70697 -56.4899,-11.29724"
       id="path4258-91-6-6"
       inkscape:connector-curvature="0"
       sodipodi:nodetypes="cccccccccccccccccccscccccccsccccccccccccccccccccccscccsccccc"
       inkscape:export-filename="/home/timon/development/animationTesting/monster-template.png"
       inkscape:export-xdpi="89.999916"
       inkscape:export-ydpi="89.999916" />
    <rect
       style="opacity:0;fill:none;fill-opacity:1;stroke:#000000;stroke-width:1.07211351;stroke-linecap:round;stroke-linejoin:miter;stroke-miterlimit:4;stroke-dasharray:none;stroke-opacity:0.32096073"
       id="rect4262-7-9-4"
       width="498.92789"
       height="498.92789"
       x="2500.5361"
       y="552.89862"
       inkscape:export-filename="/home/timon/development/animationTesting/monster-template.png"
       inkscape:export-xdpi="89.999916"
       inkscape:export-ydpi="89.999916" />
    <ellipse
       style="fill:#ffffff;fill-opacity:1;stroke:#000000;stroke-width:1.67319083;stroke-miterlimit:4;stroke-dasharray:none"
       id="path4180-94-1-0-6"
       cx="2804.8962"
       cy="743.80701"
       rx="51.962467"
       ry="65.858437"
       inkscape:export-filename="/home/timon/development/animationTesting/monster-template.png"
       inkscape:export-xdpi="89.999916"
       inkscape:export-ydpi="89.999916" />
    <ellipse
       style="fill:#ffffff;fill-opacity:1;stroke:#000000;stroke-width:1.60275614;stroke-miterlimit:4;stroke-dasharray:none"
       id="path4180-2-4-1-1-7"
       cx="2691.3638"
       cy="734.15503"
       rx="60.562447"
       ry="84.231323"
       inkscape:export-filename="/home/timon/development/animationTesting/monster-template.png"
       inkscape:export-xdpi="89.999916"
       inkscape:export-ydpi="89.999916" />
    <ellipse
       style="fill:#000000;fill-opacity:1;stroke:none"
       id="path4199-60-4-2-7"
       cx="2807.2573"
       cy="758.59094"
       rx="9.5638466"
       ry="12.424385"
       inkscape:export-filename="/home/timon/development/animationTesting/monster-template.png"
       inkscape:export-xdpi="89.999916"
       inkscape:export-ydpi="89.999916" />
    <ellipse
       style="fill:#000000;fill-opacity:1;stroke:none"
       id="path4199-6-10-9-9-8"
       cx="2690.7158"
       cy="753.88281"
       rx="10.945463"
       ry="13.657417"
       inkscape:export-filename="/home/timon/development/animationTesting/monster-template.png"
       inkscape:export-xdpi="89.999916"
       inkscape:export-ydpi="89.999916" />
    <path
       style="fill:#ffffff;fill-opacity:1;fill-rule:evenodd;stroke:#000000;stroke-width:1.67684472;stroke-linecap:round;stroke-linejoin:round;stroke-miterlimit:4;stroke-dasharray:none;stroke-opacity:1"
       d="m 2692.403,867.46819 -8.1443,52.0957 43.2252,7.6317 -2.6617,-53.1263 z"
       id="path4232-06-1-2-9"
       inkscape:connector-curvature="0"
       sodipodi:nodetypes="ccccc"
       inkscape:export-filename="/home/timon/development/animationTesting/monster-template.png"
       inkscape:export-xdpi="89.999916"
       inkscape:export-ydpi="89.999916" />
    <path
       style="fill:#ffffff;fill-opacity:1;fill-rule:evenodd;stroke:#000000;stroke-width:1.67684472;stroke-linecap:butt;stroke-linejoin:round;stroke-miterlimit:4;stroke-dasharray:none;stroke-opacity:1"
       d="m 2799.6112,869.80839 12.4634,65.0651 -50.4237,6.6507 3.4843,-66.6405 z"
       id="path4232-1-9-5-0-6"
       inkscape:connector-curvature="0"
       sodipodi:nodetypes="ccccc"
       inkscape:export-filename="/home/timon/development/animationTesting/monster-template.png"
       inkscape:export-xdpi="89.999916"
       inkscape:export-ydpi="89.999916" />
    <path
       style="fill:none;fill-rule:evenodd;stroke:#ffffff;stroke-width:3.35368943;stroke-linecap:round;stroke-linejoin:miter;stroke-miterlimit:4;stroke-dasharray:none;stroke-opacity:1"
       d="m 2648.02,846.88579 c 38.7608,30.8021 141.6409,45.1603 205.5003,-2.8104"
       id="path4228-73-0-3-5"
       inkscape:connector-curvature="0"
       sodipodi:nodetypes="cc"
       inkscape:export-filename="/home/timon/development/animationTesting/monster-template.png"
       inkscape:export-xdpi="89.999916"
       inkscape:export-ydpi="89.999916" />
    <path
       style="fill:none;fill-rule:evenodd;stroke:#ffffff;stroke-width:11.11632633;stroke-linecap:round;stroke-linejoin:round;stroke-miterlimit:4;stroke-dasharray:none;stroke-opacity:1"
       d="m 1633.0803,732.99774 c 9.1338,-11.0843 45.3965,-36.2811 103.731,1.2456"
       id="path4395-8"
       inkscape:connector-curvature="0"
       sodipodi:nodetypes="cc"
       inkscape:export-filename="/home/timon/development/animationTesting/monster-template.png"
       inkscape:export-xdpi="89.999916"
       inkscape:export-ydpi="89.999916" />
    <path
       style="fill:none;fill-rule:evenodd;stroke:#ffffff;stroke-width:10.58102131;stroke-linecap:round;stroke-linejoin:round;stroke-miterlimit:4;stroke-dasharray:none;stroke-opacity:1"
       d="m 1759.8716,735.43314 c 42.3844,-29.8782 81.1485,-33.484 105.2326,1.1124"
       id="path4395-2-0"
       inkscape:connector-curvature="0"
       sodipodi:nodetypes="cc"
       inkscape:export-filename="/home/timon/development/animationTesting/monster-template.png"
       inkscape:export-xdpi="89.999916"
       inkscape:export-ydpi="89.999916" />
  </g>
</svg>
